PathFileType	4	(X/Y/Z)	C:/Users/opensim2020/Desktop/walking_exp_matlab/subject03_walking04_straight_01.trc																																																																																																																																																							
DataRate	CameraRate	NumFrames	NumMarkers	Units	OrigDataRate	OrigDataStartFrame	OrigNumFrames																																																																																																																																																			
100	100	4	51	mm	100	835	265																																																																																																																																																			
Frame#	Time	LFHD			RFHD			LBHD			RBHD			C7			T10			CLAV			STRN			RBAK			LSHO			LUPA			LELB			LFRM			LWRA			LWRB			LFIN			RSHO			RUPA			RELB			RFRM			RWRA			RWRB			RFIN			LASI			RASI			LPSI			RPSI			LTHI			LKNE			LTIB			LANK			LHEE			LTOE			RTHI			RKNE			RTIB			RANK			RHEE			RTOE			*39			*40			*41			*42			*43			*44			*45			*46			*47			*48			*49			*50		
		X1	Y1	Z1	X2	Y2	Z2	X3	Y3	Z3	X4	Y4	Z4	X5	Y5	Z5	X6	Y6	Z6	X7	Y7	Z7	X8	Y8	Z8	X9	Y9	Z9	X10	Y10	Z10	X11	Y11	Z11	X12	Y12	Z12	X13	Y13	Z13	X14	Y14	Z14	X15	Y15	Z15	X16	Y16	Z16	X17	Y17	Z17	X18	Y18	Z18	X19	Y19	Z19	X20	Y20	Z20	X21	Y21	Z21	X22	Y22	Z22	X23	Y23	Z23	X24	Y24	Z24	X25	Y25	Z25	X26	Y26	Z26	X27	Y27	Z27	X28	Y28	Z28	X29	Y29	Z29	X30	Y30	Z30	X31	Y31	Z31	X32	Y32	Z32	X33	Y33	Z33	X34	Y34	Z34	X35	Y35	Z35	X36	Y36	Z36	X37	Y37	Z37	X38	Y38	Z38	X39	Y39	Z39	X40	Y40	Z40	X41	Y41	Z41	X42	Y42	Z42	X43	Y43	Z43	X44	Y44	Z44	X45	Y45	Z45	X46	Y46	Z46	X47	Y47	Z47	X48	Y48	Z48	X49	Y49	Z49	X50	Y50	Z50	X51	Y51	Z51
																																																																																																																																																										
100	0.99	-473.93405	1623.03064	-1251.94543	-500.04663	1632.56311	-1121.31433	-597.14325	1569.32874	-1270.33447	-618.15704	1578.50305	-1140.63245	-628.19806	1415.26013	-1208.28979	-651.78284	1101.64124	-1202.29114	-506.1925	1342.23621	-1189.5498	-456.50143	1178.07947	-1188.90698	-687.48511	1239.0072	-1116.86414	-531.98163	1377.28052	-1350.25464	-509.9437	1182.28149	-1420.8606	-480.7709	1063.12048	-1431.3877	-429.83047	942.97083	-1423.87	-393.70599	830.63885	-1389.0343	-407.25287	832.89063	-1442.92566	-372.73157	757.71832	-1432.44836	-573.04211	1366.84119	-1037.45422	-575.37799	1143.29895	-966.26318	-557.07587	1031.80994	-953.2049	-532.32159	897.11169	-952.23029	-491.79932	805.27112	-986.35504	-527.22223	796.81073	-946.48047	-498.65054	727.94354	-955.08105	-480.84967	938.97906	-1309.77759	-489.33368	942.09894	-1071.13513	-644.76862	963.71765	-1264.39917	-647.97821	967.32275	-1115.14429	-543.98505	636.08368	-1335.7655	-550.92389	461.68753	-1284.40295	-610.01587	272.70914	-1281.52454	-637.93506	66.57948	-1231.18188	-679.84204	34.23597	-1196.42981	-486.53964	28.7445	-1203.84912	-467.7359	652.8924	-1024.88074	-396.30438	487.41208	-1052.32751	-484.00488	316.55551	-1041.1665	-583.8252	123.2393	-1074.677	-640.21057	104.25005	-1123.37122	-468.49399	45.06213	-1094.13733	NaN	NaN	NaN	NaN	NaN	NaN	NaN	NaN	NaN	NaN	NaN	NaN	NaN	NaN	NaN	NaN	NaN	NaN	NaN	NaN	NaN	NaN	NaN	NaN	NaN	NaN	NaN	NaN	NaN	NaN	NaN	NaN	NaN	NaN	NaN	NaN
101	1	-465.6926	1622.75842	-1251.37964	-492.07245	1631.71326	-1120.69836	-588.87433	1569.15906	-1270.203	-610.11664	1577.81763	-1140.48816	-620.02502	1414.67334	-1208.61829	-643.40656	1101.0448	-1202.42664	-497.99814	1341.67163	-1190.04163	-448.08755	1177.61511	-1189.78406	-679.21588	1238.2301	-1117.38794	-524.13037	1376.88379	-1350.63757	-500.03497	1182.57544	-1421.82605	-468.86789	1063.9624	-1432.62524	-414.78207	945.28766	-1424.57458	-374.99435	834.56354	-1389.03418	-389.04547	835.73523	-1442.79773	-352.04132	761.87738	-1431.79089	-564.75116	1366.06238	-1037.93933	-567.9906	1142.57056	-966.48877	-550.58246	1030.98511	-953.3656	-526.96008	896.12897	-952.31372	-487.37778	803.90863	-986.43042	-522.75397	795.72455	-946.46191	-495.11893	726.52704	-955.31293	-472.7226	938.74603	-1310.18237	-480.64941	942.06262	-1071.65955	-636.65381	963.04523	-1264.08911	-639.40991	966.88019	-1114.96057	-538.52594	635.80597	-1335.40295	-547.75964	461.3829	-1284.33203	-608.61908	273.07382	-1281.51978	-637.8526	66.95673	-1231.11926	-680.12616	34.90969	-1195.96729	-486.39322	28.80386	-1203.94019	-456.83224	652.96991	-1025.12341	-384.41687	488.3544	-1053.58362	-464.73038	313.6217	-1042.39832	-554.70892	115.39491	-1076.13733	-609.93903	93.56112	-1125.19934	-435.58997	43.35294	-1096.90649	NaN	NaN	NaN	NaN	NaN	NaN	NaN	NaN	NaN	NaN	NaN	NaN	NaN	NaN	NaN	NaN	NaN	NaN	NaN	NaN	NaN	NaN	NaN	NaN	NaN	NaN	NaN	NaN	NaN	NaN	NaN	NaN	NaN	NaN	NaN	NaN
102	1.01	-457.37408	1622.35437	-1250.76062	-483.88715	1630.77576	-1120.16174	-580.54272	1568.85254	-1270.09863	-601.97003	1576.87561	-1140.36243	-611.73883	1413.97217	-1208.89856	-635.00922	1100.36938	-1202.4436	-489.77173	1340.92371	-1190.44324	-439.6973	1176.91455	-1190.42834	-670.82379	1237.41919	-1117.89026	-516.1861	1376.3623	-1351.00366	-490.14337	1182.72363	-1422.74988	-457.15237	1064.62781	-1433.81018	-399.87836	947.65936	-1425.3606	-356.48373	838.65479	-1389.05957	-371.12561	838.6546	-1442.58484	-331.68762	766.14478	-1430.98364	-556.42633	1365.28223	-1038.13196	-560.50592	1141.74707	-966.66241	-543.94562	1030.0708	-953.5022	-521.53613	895.00146	-952.37115	-483.10287	802.40265	-986.71106	-518.12372	794.57202	-946.46063	-491.32581	724.98059	-955.65002	-465.03116	938.28503	-1310.41931	-471.9588	941.83466	-1072.2085	-628.5885	962.50391	-1263.76721	-630.84589	966.35388	-1114.72229	-533.14087	635.5672	-1335.39075	-544.49194	461.10037	-1284.35449	-607.17725	273.38034	-1281.47559	-637.755	67.31985	-1231.04761	-679.77655	35.11998	-1195.95251	-486.23285	28.81	-1203.97925	-446.4816	653.06433	-1025.49072	-373.24539	488.97955	-1054.8374	-445.78781	310.75992	-1043.66382	-525.43628	108.12836	-1078.20825	-579.79163	83.94316	-1126.73596	-402.62344	42.16212	-1099.65576	NaN	NaN	NaN	NaN	NaN	NaN	NaN	NaN	NaN	NaN	NaN	NaN	NaN	NaN	NaN	NaN	NaN	NaN	NaN	NaN	NaN	NaN	NaN	NaN	NaN	NaN	NaN	NaN	NaN	NaN	NaN	NaN	NaN	NaN	NaN	NaN
103	1.02	-449.09265	1621.92224	-1250.21973	-475.90643	1629.75159	-1119.59924	-572.20007	1568.40515	-1269.94116	-593.86438	1575.90881	-1140.21973	-603.4726	1413.10925	-1209.13049	-626.64764	1099.63196	-1202.3844	-481.44125	1340.08594	-1190.83008	-431.37225	1176.1156	-1190.9436	-662.43152	1236.58203	-1118.32288	-508.16885	1375.71106	-1351.30884	-480.27911	1182.84668	-1423.76807	-445.58823	1065.31653	-1435.01062	-385.22189	949.97144	-1426.13025	-338.25525	842.87659	-1389.06909	-353.58194	841.573	-1442.34692	-311.79224	770.44977	-1430.15796	-547.93286	1364.29443	-1038.46826	-552.99658	1140.84119	-966.79584	-537.07764	1029.04199	-953.63434	-515.81445	893.79651	-952.5625	-478.68845	800.97107	-987.28723	-513.40179	793.3349	-946.4433	-487.19556	723.45282	-956.00525	-457.57797	937.77557	-1310.94995	-463.15347	941.46539	-1072.73083	-620.58276	961.84369	-1263.48486	-622.25128	965.7157	-1114.42334	-527.30078	634.88916	-1334.25452	-541.01697	460.80698	-1284.40454	-605.57074	273.66528	-1281.42554	-637.66071	67.61662	-1230.97839	-679.74438	35.56118	-1195.68396	-486.1004	28.87026	-1204.34473	-436.68655	652.92377	-1025.78369	-362.64133	489.2912	-1056.03955	-427.09128	307.97998	-1045.00732	-495.76636	101.33191	-1080.17395	-549.23114	74.84959	-1128.69031	-369.89203	41.45555	-1102.38428	NaN	NaN	NaN	NaN	NaN	NaN	NaN	NaN	NaN	NaN	NaN	NaN	NaN	NaN	NaN	NaN	NaN	NaN	NaN	NaN	NaN	NaN	NaN	NaN	NaN	NaN	NaN	NaN	NaN	NaN	NaN	NaN	NaN	NaN	NaN	NaN
